<?xml version="1.0" encoding="UTF-8" standalone="no"?><!DOCTYPE svg PUBLIC "-//W3C//DTD SVG 1.1//EN" "http://www.w3.org/Graphics/SVG/1.1/DTD/svg11.dtd"><svg width="100%" height="100%" viewBox="0 0 5000 1801" version="1.1" xmlns="http://www.w3.org/2000/svg" xmlns:xlink="http://www.w3.org/1999/xlink" xml:space="preserve" xmlns:serif="http://www.serif.com/" style="fill-rule:evenodd;clip-rule:evenodd;stroke-linejoin:round;stroke-miterlimit:2;"><path d="M1520.57,536.025c0,-200.999 -163.185,-364.184 -364.184,-364.184l-728.367,0c-200.999,0 -364.184,163.185 -364.184,364.184l0,728.367c0,200.999 163.185,364.184 364.184,364.184l728.367,0c200.999,0 364.184,-163.185 364.184,-364.184l0,-728.367Zm-254.591,824.931l-86.218,0l0,-924.341c32.421,-9.078 56.26,-38.833 56.26,-74.042c0,-26.352 -21.476,-47.792 -47.875,-47.792l-49.989,-0.003l-741.892,0c-26.399,0 -47.876,21.44 -47.876,47.792c0,35.209 23.84,64.964 56.261,74.042l0,924.341l-102.339,0c-26.427,0 -47.928,21.44 -47.928,47.792c0,42.398 34.618,76.891 77.173,76.891l905.178,0c42.556,0 77.173,-34.493 77.173,-76.888c0,-26.352 -21.501,-47.792 -47.928,-47.792Zm-29.245,83.075l-905.178,0c-19.612,0 -35.569,-15.826 -35.569,-35.283c0,-3.411 2.835,-6.188 6.324,-6.188l670.224,0c11.491,0 20.802,-9.311 20.802,-20.802c0,-11.491 -9.311,-20.802 -20.802,-20.802l-104.058,0l0,-359.828c0,-11.491 -9.311,-20.802 -20.802,-20.802l-110.945,0c-11.491,0 -20.802,9.311 -20.802,20.802l0,359.825l-269.677,0l0,-921.198l75.931,0c11.491,0 20.802,-9.311 20.802,-20.802c0,-11.491 -9.311,-20.802 -20.802,-20.802l-96.733,0l0,-0.292c-19.551,0 -35.458,-15.829 -35.458,-35.286c0,-3.411 2.815,-6.188 6.271,-6.188l791.884,0c3.458,0 6.271,2.777 6.271,6.188c0,19.457 -15.907,35.286 -35.458,35.286l0,0.292l-539.312,0c-11.491,0 -20.802,9.311 -20.802,20.802c0,11.491 9.311,20.802 20.802,20.802l518.507,0l0,921.201l-68.631,0c-11.491,0 -20.802,9.311 -20.802,20.802c0,11.491 9.311,20.802 20.802,20.802l196.456,0c3.489,0 6.324,2.777 6.324,6.188c0,19.457 -15.957,35.283 -35.569,35.283Zm-479.202,-338.892l69.341,0l0,255.814l-69.341,0l0,-255.814Zm339.769,150.561l0,-254.569c0,-11.491 -9.311,-20.802 -20.802,-20.802l-110.945,0c-11.491,0 -20.802,9.311 -20.802,20.802l0,254.569c0,11.491 9.311,20.802 20.802,20.802l110.945,0c11.491,0 20.802,-9.314 20.802,-20.802Zm-477.654,-275.374l-110.945,0c-11.491,0 -20.802,9.311 -20.802,20.802l0,254.569c0,11.491 9.311,20.802 20.802,20.802l110.945,0c11.491,0 20.802,-9.311 20.802,-20.802l0,-254.569c0,-11.488 -9.311,-20.802 -20.802,-20.802Zm-90.143,254.571l0,-129.755l69.341,0l0,129.755l-69.341,0Zm456.852,0l0,-129.755l69.341,0l0,129.755l-69.341,0Zm-159.483,-171.362l-69.341,0l0,-41.605l69.341,0l0,41.605Zm-228.028,-41.605l0,41.605l-69.341,0l0,-41.605l69.341,0Zm456.852,0l0,41.605l-69.341,0l0,-41.605l69.341,0Zm-436.05,-291.053l-110.945,0c-11.491,0 -20.802,9.311 -20.802,20.802l0,166.418c0,11.491 9.311,20.802 20.802,20.802l110.945,0c11.491,0 20.802,-9.311 20.802,-20.802l0,-166.418c0,-11.491 -9.311,-20.802 -20.802,-20.802Zm228.028,0l-110.945,0c-11.491,0 -20.802,9.311 -20.802,20.802l0,166.418c0,11.491 9.311,20.802 20.802,20.802l110.945,0c11.491,0 20.802,-9.311 20.802,-20.802l0,-166.418c0,-11.491 -9.311,-20.802 -20.802,-20.802Zm117.879,208.022l110.945,0c11.491,0 20.802,-9.311 20.802,-20.802l0,-166.418c0,-11.491 -9.311,-20.802 -20.802,-20.802l-110.945,0c-11.491,0 -20.802,9.311 -20.802,20.802l0,166.418c0,11.488 9.314,20.802 20.802,20.802Zm-436.05,-41.604l0,-41.605l69.341,0l0,41.605l-69.341,0Zm228.028,0l0,-41.605l69.341,0l0,41.605l-69.341,0Zm228.824,0l0,-41.605l69.341,0l0,41.605l-69.341,0Zm-387.511,-124.813l0,41.604l-69.341,0l0,-41.604l69.341,0Zm228.028,0l0,41.604l-69.341,0l0,-41.604l69.341,0Zm228.824,0l0,41.604l-69.341,0l0,-41.604l69.341,0Zm-436.05,-290.779l-110.945,0c-11.491,0 -20.802,9.311 -20.802,20.802l0,166.418c0,11.491 9.311,20.802 20.802,20.802l110.945,0c11.491,0 20.802,-9.311 20.802,-20.802l0,-166.418c0,-11.491 -9.311,-20.802 -20.802,-20.802Zm228.028,0l-110.945,0c-11.491,0 -20.802,9.311 -20.802,20.802l0,166.418c0,11.491 9.311,20.802 20.802,20.802l110.945,0c11.491,0 20.802,-9.311 20.802,-20.802l0,-166.418c0,-11.491 -9.311,-20.802 -20.802,-20.802Zm117.879,208.022l110.945,0c11.491,0 20.802,-9.311 20.802,-20.802l0,-166.418c0,-11.491 -9.311,-20.802 -20.802,-20.802l-110.945,0c-11.491,0 -20.802,9.311 -20.802,20.802l0,166.418c0,11.491 9.314,20.802 20.802,20.802Zm-436.05,-41.604l0,-41.605l69.341,0l0,41.605l-69.341,0Zm228.028,0l0,-41.605l69.341,0l0,41.605l-69.341,0Zm228.824,0l0,-41.605l69.341,0l0,41.605l-69.341,0Zm-387.511,-124.813l0,41.604l-69.341,0l0,-41.604l69.341,0Zm228.028,0l0,41.604l-69.341,0l0,-41.604l69.341,0Zm228.824,0l0,41.604l-69.341,0l0,-41.604l69.341,0Z" style="fill:#f54140;"/><path d="M1886.52,1293.53c-81.172,0 -142.81,-22.569 -184.913,-67.707c-42.103,-45.138 -63.155,-105.637 -63.155,-181.499l0,-540.515l150.206,0l0,538.239c0,36.414 7.397,62.776 22.19,79.086c14.793,16.31 40.396,24.465 76.81,24.465l237.826,0l0,147.931l-238.964,0Z" style="fill:#394157;fill-rule:nonzero;"/><path d="M2416.79,1169.49c19.724,0 38.31,-3.983 55.759,-11.949c17.448,-7.965 32.81,-19.344 46.086,-34.137c13.275,-14.793 23.706,-32.431 31.292,-52.914c7.587,-20.483 11.38,-43.241 11.38,-68.275c0,-25.035 -3.793,-48.173 -11.38,-69.414c-7.586,-21.241 -18.017,-39.448 -31.292,-54.62c-13.276,-15.173 -28.638,-26.931 -46.086,-35.276c-17.449,-8.345 -36.035,-12.517 -55.759,-12.517c-19.724,0 -38.5,4.172 -56.327,12.517c-17.828,8.345 -33.19,20.103 -46.086,35.276c-12.897,15.172 -23.138,33.379 -30.724,54.62c-7.586,21.241 -11.379,44.379 -11.379,69.414c0,25.034 3.793,47.792 11.379,68.275c7.586,20.483 17.827,38.121 30.724,52.914c12.896,14.793 28.258,26.172 46.086,34.137c17.827,7.966 36.603,11.949 56.327,11.949Zm0,-476.791c40.965,0 79.276,7.776 114.931,23.327c35.655,15.552 66.948,37.173 93.878,64.862c26.931,27.69 48.173,60.31 63.724,97.862c15.552,37.551 23.328,78.327 23.328,122.327c0,43.999 -7.776,84.585 -23.328,121.758c-15.551,37.172 -36.793,69.413 -63.724,96.723c-26.93,27.311 -58.223,48.742 -93.878,64.293c-35.655,15.552 -73.966,23.328 -114.931,23.328c-40.965,0 -79.275,-7.776 -114.93,-23.328c-35.655,-15.551 -66.759,-36.982 -93.31,-64.293c-26.552,-27.31 -47.603,-59.551 -63.155,-96.723c-15.552,-37.173 -23.328,-77.759 -23.328,-121.758c0,-44 7.776,-84.776 23.328,-122.327c15.552,-37.552 36.603,-70.172 63.155,-97.862c26.551,-27.689 57.655,-49.31 93.31,-64.862c35.655,-15.551 73.965,-23.327 114.93,-23.327Z" style="fill:#394157;fill-rule:nonzero;"/><path d="M3175.79,1002.22c0,-23.518 -3.982,-45.517 -11.948,-66c-7.965,-20.483 -18.776,-38.31 -32.431,-53.483c-13.655,-15.172 -29.586,-27.12 -47.793,-35.844c-18.206,-8.724 -37.551,-13.086 -58.034,-13.086c-20.482,0 -39.827,4.172 -58.034,12.517c-18.207,8.345 -34.138,20.103 -47.793,35.276c-13.655,15.172 -24.465,32.999 -32.431,53.482c-7.965,20.483 -11.948,42.862 -11.948,67.138c0,23.517 3.983,45.327 11.948,65.43c7.966,20.104 18.776,37.552 32.431,52.345c13.655,14.793 29.586,26.362 47.793,34.707c18.207,8.344 37.552,12.517 58.034,12.517c20.483,0 39.828,-4.362 58.034,-13.086c18.207,-8.724 34.138,-20.483 47.793,-35.276c13.655,-14.793 24.466,-32.241 32.431,-52.345c7.966,-20.103 11.948,-41.534 11.948,-64.292Zm150.207,-1.138c0,42.482 -7.397,82.31 -22.19,119.482c-14.793,37.172 -35.465,69.603 -62.017,97.292c-26.551,27.69 -58.224,49.5 -95.017,65.431c-36.793,15.931 -77.189,23.897 -121.189,23.897c-44.758,0 -85.534,-7.966 -122.327,-23.897c-36.793,-15.931 -68.465,-37.741 -95.016,-65.431c-26.552,-27.689 -47.224,-60.12 -62.017,-97.292c-14.793,-37.172 -22.19,-77 -22.19,-119.482c0,-41.724 7.397,-81.172 22.19,-118.345c14.793,-37.172 34.896,-69.792 60.31,-97.861c25.413,-28.069 54.999,-50.069 88.758,-66c33.758,-15.931 69.982,-23.896 108.672,-23.896c69.792,0 127.068,22.758 171.826,68.275l0,-316.343l150.207,0l0,554.17Z" style="fill:#394157;fill-rule:nonzero;"/><path d="M3807.34,1002.22c0,-23.518 -3.983,-45.517 -11.948,-66c-7.966,-20.483 -18.776,-38.31 -32.431,-53.483c-13.655,-15.172 -29.586,-27.12 -47.793,-35.844c-18.207,-8.724 -37.551,-13.086 -58.034,-13.086c-20.483,0 -39.827,4.172 -58.034,12.517c-18.207,8.345 -34.138,20.103 -47.793,35.276c-13.655,15.172 -24.466,32.999 -32.431,53.482c-7.966,20.483 -11.948,42.862 -11.948,67.138c0,23.517 3.982,45.327 11.948,65.43c7.965,20.104 18.776,37.552 32.431,52.345c13.655,14.793 29.586,26.362 47.793,34.707c18.207,8.344 37.551,12.517 58.034,12.517c20.483,0 39.827,-4.362 58.034,-13.086c18.207,-8.724 34.138,-20.483 47.793,-35.276c13.655,-14.793 24.465,-32.241 32.431,-52.345c7.965,-20.103 11.948,-41.534 11.948,-64.292Zm150.206,261.722c0,48.552 -7.017,92.362 -21.051,131.431c-14.035,39.069 -34.138,72.258 -60.31,99.568c-26.173,27.311 -58.035,48.362 -95.586,63.155c-37.552,14.793 -79.845,22.19 -126.879,22.19c-35.655,0 -69.413,-4.931 -101.275,-14.793c-31.862,-9.862 -60.31,-23.707 -85.345,-41.535c-25.034,-17.827 -46.275,-39.258 -63.723,-64.292c-17.449,-25.035 -28.828,-53.104 -34.138,-84.207l163.861,0c4.552,11.379 11.569,21.241 21.052,29.586c9.482,8.345 19.913,15.173 31.293,20.483c11.379,5.31 22.948,9.103 34.706,11.379c11.759,2.276 22.948,3.414 33.569,3.414c53.103,0 91.982,-15.931 116.637,-47.793c24.656,-31.862 36.983,-73.965 36.983,-126.31l0,-26.172c-22,22 -47.603,38.5 -76.81,49.5c-29.207,11 -60.5,16.5 -93.879,16.5c-38.689,0 -75.103,-7.966 -109.241,-23.897c-34.137,-15.931 -63.913,-37.741 -89.327,-65.43c-25.413,-27.69 -45.517,-59.931 -60.31,-96.724c-14.793,-36.793 -22.189,-76.431 -22.189,-118.913c0,-42.483 7.396,-82.5 22.189,-120.051c14.793,-37.552 35.466,-70.173 62.017,-97.862c26.552,-27.69 58.224,-49.689 95.017,-66c36.793,-16.31 77.568,-24.465 122.327,-24.465c44,0 84.396,8.155 121.189,24.465c36.793,16.311 68.465,38.31 95.017,66c26.551,27.689 47.224,60.31 62.017,97.862c14.793,37.551 22.189,77.568 22.189,120.051l0,262.86Z" style="fill:#394157;fill-rule:nonzero;"/><path d="M4410.44,877.046c-13.656,-16.69 -30.345,-29.586 -50.069,-38.69c-19.724,-9.103 -41.724,-13.655 -66,-13.655c-22,0 -42.482,4.173 -61.448,12.517c-18.965,8.345 -35.465,19.914 -49.5,34.707c-14.034,14.793 -25.413,32.431 -34.137,52.914c-8.724,20.482 -13.466,43.241 -14.224,68.275l275.378,-116.068Zm168.412,229.861c-17.448,59.93 -50.637,108.292 -99.568,145.085c-48.931,36.793 -110.189,55.19 -183.775,55.19c-41.724,0 -80.793,-7.966 -117.206,-23.897c-36.414,-15.931 -68.276,-37.741 -95.586,-65.431c-27.31,-27.689 -48.741,-60.12 -64.293,-97.292c-15.551,-37.172 -23.327,-77 -23.327,-119.482c0,-42.483 7.776,-82.5 23.327,-120.051c15.552,-37.552 36.983,-70.173 64.293,-97.862c27.31,-27.69 59.172,-49.689 95.586,-66c36.413,-16.31 75.482,-24.465 117.206,-24.465c34.896,0 68.276,5.5 100.137,16.5c31.862,11 60.5,26.931 85.914,47.793c25.414,20.862 47.034,46.465 64.862,76.81c17.827,30.344 30.155,65.241 36.982,104.689l-414.205,174.102c15.173,19.724 33.379,35.086 54.621,46.086c21.241,11 44.758,16.5 70.551,16.5c24.276,0 47.793,-5.5 70.552,-16.5c22.758,-11 40.586,-28.258 53.482,-51.775l160.447,0Z" style="fill:#394157;fill-rule:nonzero;"/><path d="M4936.16,837.218c-47.793,-8.344 -86.293,-1.327 -115.499,21.052c-29.207,22.379 -43.81,54.431 -43.81,96.155l0,339.102l-150.207,0l0,-339.102c0,-41.724 7.018,-79.655 21.052,-113.793c14.034,-34.138 34.327,-62.965 60.879,-86.482c26.552,-23.517 58.982,-40.586 97.293,-51.207c38.31,-10.62 81.741,-12.896 130.292,-6.827l0,141.102Z" style="fill:#394157;fill-rule:nonzero;"/></svg>