<svg id="Layer_1" data-name="Layer 1" xmlns="http://www.w3.org/2000/svg" viewBox="0 0 36.05 34.88"><defs><style>.cls-1{fill:none;stroke:#fff;stroke-linecap:round;stroke-linejoin:round;}</style></defs><title>user_icon-01</title><path class="cls-1" d="M27.5,28.85v-.94a4.07,4.07,0,0,0-2-3.47L21.15,22"/><path class="cls-1" d="M15.13,22l-4.34,2.47a4,4,0,0,0-2,3.47v.94"/><path class="cls-1" d="M18.14,22.9h0a5.36,5.36,0,0,1-5.35-5.35V14.88a5.36,5.36,0,0,1,5.35-5.35h0a5.36,5.36,0,0,1,5.35,5.35v2.67A5.36,5.36,0,0,1,18.14,22.9Z"/><circle class="cls-1" cx="18.14" cy="17.56" r="14.7"/></svg>